# xmcd
# 
# Track frame offsets:
#     150
#     14266
#     26174
#     43638
#     58938
#     73701
#     90929
#     105923
#     118790
#     136712
# 
# Disc length: 2026
# 
# Revision: 2
# Processed by: cddbd v1.5.2PL0 Copyright (c) Steve Scherf et al.
# Submitted via: fre:ac v1.1beta1pre4
# 
DISCID=7c07e80a
DTITLE=Suzy Bogguss - I'm Dreaming of a White Christmas
DYEAR=2010
DGENRE=Holiday
TTITLE0=I'll Be Home for Christmas
TTITLE1=Santa Claus is Coming to Town
TTITLE2=The First Noel
TTITLE3=Go Tell It on the Mountain
TTITLE4=Good King Wenceslas
TTITLE5=Beautiful Star
TTITLE6=You're a Mean One Mr Grinch
TTITLE7=Baby It's Cold Outside w-Doug Crider
TTITLE8=White Christmas
TTITLE9=What Are You Doing New Year's Eve
EXTD=
EXTT0=
EXTT1=
EXTT2=
EXTT3=
EXTT4=
EXTT5=
EXTT6=
EXTT7=
EXTT8=
EXTT9=
PLAYORDER=
